<svg
  xmlns="http://www.w3.org/2000/svg"
  viewBox="0 0 64 64"
  role="img"
  aria-label="Rubik's cube"
>
  <rect width="64" height="64" rx="14" fill="#15191f" />
  <g stroke="#15191f" stroke-width="2" stroke-linejoin="round">
    <path d="M18 14h30v30H18z" fill="#ffffff" />
    <path d="M18 14h10v10H18z" fill="#ffd447" />
    <path d="M28 14h10v10H28z" fill="#3151ad" />
    <path d="M38 14h10v10H38z" fill="#e00000" />
    <path d="M18 24h10v10H18z" fill="#3151ad" />
    <path d="M28 24h10v10H28z" fill="#ffffff" />
    <path d="M38 24h10v10H38z" fill="#00a551" />
    <path d="M18 34h10v10H18z" fill="#ff7a00" />
    <path d="M28 34h10v10H28z" fill="#ffd447" />
    <path d="M38 34h10v10H38z" fill="#ffffff" />
  </g>
  <path
    d="M48 18l7 5v27l-7-6z"
    fill="#00a551"
    stroke="#15191f"
    stroke-width="2"
    stroke-linejoin="round"
  />
  <path
    d="M20 44h28l7 6H27z"
    fill="#ff7a00"
    stroke="#15191f"
    stroke-width="2"
    stroke-linejoin="round"
  />
</svg>
