<svg
  xmlns="http://www.w3.org/2000/svg"
  viewBox="0 0 1200 630"
  role="img"
  aria-label="Cubing for Frankie daisy guide"
>
  <defs>
    <filter id="shadow" x="-18%" y="-18%" width="136%" height="136%">
      <feDropShadow
        dx="0"
        dy="20"
        stdDeviation="22"
        flood-color="#000000"
        flood-opacity="0.28"
      />
    </filter>
  </defs>
  <rect width="1200" height="630" fill="#15191f" />
  <rect
    x="82"
    y="72"
    width="1036"
    height="486"
    rx="26"
    fill="#f7f9fb"
    filter="url(#shadow)"
  />
  <circle cx="974" cy="300" r="150" fill="#ffd33d" opacity="0.72" />
  <circle cx="974" cy="300" r="98" fill="#ffffff" opacity="0.78" />
  <g transform="translate(750 118) scale(2.17)">
    <path d="M55 123h66l36-24V33H91L55 57z" fill="#000" opacity="0.04" />
    <polygon
      points="55.00,57.00 67.00,49.00 89.00,49.00 77.00,57.00"
      fill="#cbd5e1"
      stroke="#15191f"
      stroke-width="1.7"
      stroke-linejoin="round"
    />
    <polygon
      points="67.00,49.00 79.00,41.00 101.00,41.00 89.00,49.00"
      fill="#ffffff"
      stroke="#15191f"
      stroke-width="1.7"
      stroke-linejoin="round"
    />
    <polygon
      points="79.00,41.00 91.00,33.00 113.00,33.00 101.00,41.00"
      fill="#cbd5e1"
      stroke="#15191f"
      stroke-width="1.7"
      stroke-linejoin="round"
    />
    <polygon
      points="77.00,57.00 89.00,49.00 111.00,49.00 99.00,57.00"
      fill="#ffffff"
      stroke="#15191f"
      stroke-width="1.7"
      stroke-linejoin="round"
    />
    <polygon
      points="89.00,49.00 101.00,41.00 123.00,41.00 111.00,49.00"
      fill="#ffd33d"
      stroke="#15191f"
      stroke-width="1.7"
      stroke-linejoin="round"
    />
    <polygon
      points="101.00,41.00 113.00,33.00 135.00,33.00 123.00,41.00"
      fill="#ffffff"
      stroke="#15191f"
      stroke-width="1.7"
      stroke-linejoin="round"
    />
    <polygon
      points="99.00,57.00 111.00,49.00 133.00,49.00 121.00,57.00"
      fill="#cbd5e1"
      stroke="#15191f"
      stroke-width="1.7"
      stroke-linejoin="round"
    />
    <polygon
      points="111.00,49.00 123.00,41.00 145.00,41.00 133.00,49.00"
      fill="#ffffff"
      stroke="#15191f"
      stroke-width="1.7"
      stroke-linejoin="round"
    />
    <polygon
      points="123.00,41.00 135.00,33.00 157.00,33.00 145.00,41.00"
      fill="#cbd5e1"
      stroke="#15191f"
      stroke-width="1.7"
      stroke-linejoin="round"
    />
    <g stroke="#15191f" stroke-width="1.7" stroke-linejoin="round">
      <polygon
        points="121.00,57.00 133.00,49.00 133.00,71.00 121.00,79.00"
        fill="#cbd5e1"
      />
      <polygon
        points="133.00,49.00 145.00,41.00 145.00,63.00 133.00,71.00"
        fill="#cbd5e1"
      />
      <polygon
        points="145.00,41.00 157.00,33.00 157.00,55.00 145.00,63.00"
        fill="#cbd5e1"
      />
      <polygon
        points="121.00,79.00 133.00,71.00 133.00,93.00 121.00,101.00"
        fill="#cbd5e1"
      />
      <polygon
        points="133.00,71.00 145.00,63.00 145.00,85.00 133.00,93.00"
        fill="#df5a4f"
      />
      <polygon
        points="145.00,63.00 157.00,55.00 157.00,77.00 145.00,85.00"
        fill="#cbd5e1"
      />
      <polygon
        points="121.00,101.00 133.00,93.00 133.00,115.00 121.00,123.00"
        fill="#cbd5e1"
      />
      <polygon
        points="133.00,93.00 145.00,85.00 145.00,107.00 133.00,115.00"
        fill="#cbd5e1"
      />
      <polygon
        points="145.00,85.00 157.00,77.00 157.00,99.00 145.00,107.00"
        fill="#cbd5e1"
      />
      <polygon
        points="55.00,57.00 77.00,57.00 77.00,79.00 55.00,79.00"
        fill="#cbd5e1"
      />
      <polygon
        points="77.00,57.00 99.00,57.00 99.00,79.00 77.00,79.00"
        fill="#cbd5e1"
      />
      <polygon
        points="99.00,57.00 121.00,57.00 121.00,79.00 99.00,79.00"
        fill="#cbd5e1"
      />
      <polygon
        points="55.00,79.00 77.00,79.00 77.00,101.00 55.00,101.00"
        fill="#cbd5e1"
      />
      <polygon
        points="77.00,79.00 99.00,79.00 99.00,101.00 77.00,101.00"
        fill="#3f73d8"
      />
      <polygon
        points="99.00,79.00 121.00,79.00 121.00,101.00 99.00,101.00"
        fill="#cbd5e1"
      />
      <polygon
        points="55.00,101.00 77.00,101.00 77.00,123.00 55.00,123.00"
        fill="#cbd5e1"
      />
      <polygon
        points="77.00,101.00 99.00,101.00 99.00,123.00 77.00,123.00"
        fill="#cbd5e1"
      />
      <polygon
        points="99.00,101.00 121.00,101.00 121.00,123.00 99.00,123.00"
        fill="#cbd5e1"
      />
    </g>
  </g>
  <g font-family="Avenir, Trebuchet MS, Arial, sans-serif" fill="#15191f">
    <text x="150" y="226" font-size="74" font-weight="800">
      Cubing for Frankie
    </text>
    <text x="154" y="302" font-size="34" font-weight="700" fill="#3f73d8">
      Printable beginner Rubik's Cube guide
    </text>
    <text x="154" y="378" font-size="30" font-weight="700" fill="#29323d">
      Start with the daisy,
    </text>
    <text x="154" y="418" font-size="30" font-weight="700" fill="#29323d">
      then solve step by step.
    </text>
  </g>
  <g
    transform="translate(154 454)"
    font-family="Avenir, Trebuchet MS, Arial, sans-serif"
    font-size="25"
    font-weight="800"
  >
    <rect width="112" height="48" rx="8" fill="#ffd33d" />
    <rect x="128" width="96" height="48" rx="8" fill="#3f73d8" />
    <rect x="240" width="96" height="48" rx="8" fill="#df5a4f" />
    <rect x="352" width="96" height="48" rx="8" fill="#00a551" />
    <text x="56" y="32" text-anchor="middle" fill="#15191f">Daisy</text>
    <text x="176" y="32" text-anchor="middle" fill="#ffffff">F2L</text>
    <text x="288" y="32" text-anchor="middle" fill="#ffffff">OLL</text>
    <text x="400" y="32" text-anchor="middle" fill="#ffffff">PLL</text>
  </g>
</svg>
