<svg
  xmlns="http://www.w3.org/2000/svg"
  viewBox="0 0 1200 630"
  role="img"
  aria-label="Cubing for Frankie"
>
  <defs>
    <linearGradient id="bg" x1="0" x2="1" y1="0" y2="1">
      <stop offset="0" stop-color="#15191f" />
      <stop offset="0.52" stop-color="#20252b" />
      <stop offset="1" stop-color="#3151ad" />
    </linearGradient>
    <filter id="shadow" x="-20%" y="-20%" width="140%" height="140%">
      <feDropShadow
        dx="0"
        dy="20"
        stdDeviation="22"
        flood-color="#000000"
        flood-opacity="0.32"
      />
    </filter>
  </defs>
  <rect width="1200" height="630" fill="url(#bg)" />
  <rect
    x="88"
    y="80"
    width="1024"
    height="470"
    rx="28"
    fill="#f7f9fb"
    filter="url(#shadow)"
  />
  <g
    transform="translate(820 150) scale(0.82)"
    stroke="#15191f"
    stroke-width="8"
    stroke-linejoin="round"
  >
    <path d="M0 80 154 8l154 72-154 78z" fill="#f3f6fb" />
    <path d="M0 80v178l154 84V158z" fill="#3151ad" />
    <path d="M154 158v184l154-84V80z" fill="#e00000" />
    <g stroke-width="5">
      <path
        d="M51 56 205 130M102 32l154 72M154 8 0 80M205 32 51 107M256 56 102 135"
        fill="none"
      />
      <path d="M51 108v178M102 134v180M0 140l154 84M0 199l154 84" fill="none" />
      <path
        d="M205 134v180M256 108v178M154 224l154-84M154 283l154-84"
        fill="none"
      />
    </g>
  </g>
  <g font-family="Avenir, Trebuchet MS, Arial, sans-serif" fill="#15191f">
    <text x="150" y="226" font-size="74" font-weight="800">
      Cubing for Frankie
    </text>
    <text x="154" y="302" font-size="34" font-weight="700" fill="#3151ad">
      Printable beginner Rubik's Cube guide
    </text>
    <text x="154" y="378" font-size="30" font-weight="700" fill="#29323d">
      Typed steps, clear diagrams,
    </text>
    <text x="154" y="418" font-size="30" font-weight="700" fill="#29323d">
      and large AnimCube players.
    </text>
  </g>
  <g
    transform="translate(154 454)"
    font-family="Avenir, Trebuchet MS, Arial, sans-serif"
    font-size="25"
    font-weight="800"
  >
    <rect width="96" height="48" rx="8" fill="#ffd447" />
    <rect x="112" width="96" height="48" rx="8" fill="#3151ad" />
    <rect x="224" width="96" height="48" rx="8" fill="#e00000" />
    <rect x="336" width="96" height="48" rx="8" fill="#00a551" />
    <text x="48" y="32" text-anchor="middle" fill="#15191f">Daisy</text>
    <text x="160" y="32" text-anchor="middle" fill="#ffffff">F2L</text>
    <text x="272" y="32" text-anchor="middle" fill="#ffffff">OLL</text>
    <text x="384" y="32" text-anchor="middle" fill="#ffffff">PLL</text>
  </g>
</svg>
