<?xml version="1.0" encoding="UTF-8"?>
<svg xmlns="http://www.w3.org/2000/svg" viewBox="0 0 188 150" role="img" aria-labelledby="title">
  <title id="title">White red blue corner in the left slot</title>
  <rect width="188" height="150" fill="white"/>
  <path d="M78 22h66v66l-38 24H40V46z" fill="#000" opacity="0.04"/>
  <polygon points="78.00,22.00 65.33,30.00 65.33,52.00 78.00,44.00" fill="#ffffff" stroke="#15191f" stroke-width="1.7" stroke-linejoin="round"/><polygon points="65.33,30.00 52.67,38.00 52.67,60.00 65.33,52.00" fill="#cbd5e1" stroke="#15191f" stroke-width="1.7" stroke-linejoin="round"/><polygon points="52.67,38.00 40.00,46.00 40.00,68.00 52.67,60.00" fill="#cbd5e1" stroke="#15191f" stroke-width="1.7" stroke-linejoin="round"/><polygon points="78.00,44.00 65.33,52.00 65.33,74.00 78.00,66.00" fill="#cbd5e1" stroke="#15191f" stroke-width="1.7" stroke-linejoin="round"/><polygon points="65.33,52.00 52.67,60.00 52.67,82.00 65.33,74.00" fill="#df5a4f" stroke="#15191f" stroke-width="1.7" stroke-linejoin="round"/><polygon points="52.67,60.00 40.00,68.00 40.00,90.00 52.67,82.00" fill="#cbd5e1" stroke="#15191f" stroke-width="1.7" stroke-linejoin="round"/><polygon points="78.00,66.00 65.33,74.00 65.33,96.00 78.00,88.00" fill="#94a3b8" stroke="#15191f" stroke-width="1.7" stroke-linejoin="round"/><polygon points="65.33,74.00 52.67,82.00 52.67,104.00 65.33,96.00" fill="#df5a4f" stroke="#15191f" stroke-width="1.7" stroke-linejoin="round"/><polygon points="52.67,82.00 40.00,90.00 40.00,112.00 52.67,104.00" fill="#cbd5e1" stroke="#15191f" stroke-width="1.7" stroke-linejoin="round"/>
  <polygon points="78.00,22.00 100.00,22.00 100.00,44.00 78.00,44.00" fill="#3f73d8" stroke="#15191f" stroke-width="1.7" stroke-linejoin="round"/><polygon points="100.00,22.00 122.00,22.00 122.00,44.00 100.00,44.00" fill="#cbd5e1" stroke="#15191f" stroke-width="1.7" stroke-linejoin="round"/><polygon points="122.00,22.00 144.00,22.00 144.00,44.00 122.00,44.00" fill="#cbd5e1" stroke="#15191f" stroke-width="1.7" stroke-linejoin="round"/><polygon points="78.00,44.00 100.00,44.00 100.00,66.00 78.00,66.00" fill="#cbd5e1" stroke="#15191f" stroke-width="1.7" stroke-linejoin="round"/><polygon points="100.00,44.00 122.00,44.00 122.00,66.00 100.00,66.00" fill="#3f73d8" stroke="#15191f" stroke-width="1.7" stroke-linejoin="round"/><polygon points="122.00,44.00 144.00,44.00 144.00,66.00 122.00,66.00" fill="#cbd5e1" stroke="#15191f" stroke-width="1.7" stroke-linejoin="round"/><polygon points="78.00,66.00 100.00,66.00 100.00,88.00 78.00,88.00" fill="#94a3b8" stroke="#15191f" stroke-width="1.7" stroke-linejoin="round"/><polygon points="100.00,66.00 122.00,66.00 122.00,88.00 100.00,88.00" fill="#3f73d8" stroke="#15191f" stroke-width="1.7" stroke-linejoin="round"/><polygon points="122.00,66.00 144.00,66.00 144.00,88.00 122.00,88.00" fill="#cbd5e1" stroke="#15191f" stroke-width="1.7" stroke-linejoin="round"/>
  <polygon points="78.00,88.00 100.00,88.00 87.33,96.00 65.33,96.00" fill="#94a3b8" stroke="#15191f" stroke-width="1.7" stroke-linejoin="round"/><polygon points="100.00,88.00 122.00,88.00 109.33,96.00 87.33,96.00" fill="#ffffff" stroke="#15191f" stroke-width="1.7" stroke-linejoin="round"/><polygon points="122.00,88.00 144.00,88.00 131.33,96.00 109.33,96.00" fill="#cbd5e1" stroke="#15191f" stroke-width="1.7" stroke-linejoin="round"/><polygon points="65.33,96.00 87.33,96.00 74.67,104.00 52.67,104.00" fill="#ffffff" stroke="#15191f" stroke-width="1.7" stroke-linejoin="round"/><polygon points="87.33,96.00 109.33,96.00 96.67,104.00 74.67,104.00" fill="#ffffff" stroke="#15191f" stroke-width="1.7" stroke-linejoin="round"/><polygon points="109.33,96.00 131.33,96.00 118.67,104.00 96.67,104.00" fill="#ffffff" stroke="#15191f" stroke-width="1.7" stroke-linejoin="round"/><polygon points="52.67,104.00 74.67,104.00 62.00,112.00 40.00,112.00" fill="#cbd5e1" stroke="#15191f" stroke-width="1.7" stroke-linejoin="round"/><polygon points="74.67,104.00 96.67,104.00 84.00,112.00 62.00,112.00" fill="#ffffff" stroke="#15191f" stroke-width="1.7" stroke-linejoin="round"/><polygon points="96.67,104.00 118.67,104.00 106.00,112.00 84.00,112.00" fill="#cbd5e1" stroke="#15191f" stroke-width="1.7" stroke-linejoin="round"/>
  
    <path d="M 71.5 36 L 71.50 79.00" fill="none" stroke="#3151ad" stroke-width="4" stroke-linecap="round"/>
    <polygon points="71.50,90.00 67.00,79.00 76.00,79.00" fill="#3151ad" stroke="#3151ad" stroke-linejoin="round"/>
  
</svg>
