<?xml version="1.0" encoding="UTF-8"?>
<svg xmlns="http://www.w3.org/2000/svg" viewBox="0 0 188 150" role="img" aria-labelledby="title">
  <title id="title">White red blue corner for double right kick</title>
  <rect width="188" height="150" fill="white"/>
  <path d="M44 22h66l38 24v66H82L44 88z" fill="#000" opacity="0.04"/>
  <polygon points="44.00,22.00 66.00,22.00 66.00,44.00 44.00,44.00" fill="#cbd5e1" stroke="#15191f" stroke-width="1.7" stroke-linejoin="round"/><polygon points="66.00,22.00 88.00,22.00 88.00,44.00 66.00,44.00" fill="#cbd5e1" stroke="#15191f" stroke-width="1.7" stroke-linejoin="round"/><polygon points="88.00,22.00 110.00,22.00 110.00,44.00 88.00,44.00" fill="#df5a4f" stroke="#15191f" stroke-width="1.7" stroke-linejoin="round"/><polygon points="44.00,44.00 66.00,44.00 66.00,66.00 44.00,66.00" fill="#cbd5e1" stroke="#15191f" stroke-width="1.7" stroke-linejoin="round"/><polygon points="66.00,44.00 88.00,44.00 88.00,66.00 66.00,66.00" fill="#3f73d8" stroke="#15191f" stroke-width="1.7" stroke-linejoin="round"/><polygon points="88.00,44.00 110.00,44.00 110.00,66.00 88.00,66.00" fill="#cbd5e1" stroke="#15191f" stroke-width="1.7" stroke-linejoin="round"/><polygon points="44.00,66.00 66.00,66.00 66.00,88.00 44.00,88.00" fill="#cbd5e1" stroke="#15191f" stroke-width="1.7" stroke-linejoin="round"/><polygon points="66.00,66.00 88.00,66.00 88.00,88.00 66.00,88.00" fill="#3f73d8" stroke="#15191f" stroke-width="1.7" stroke-linejoin="round"/><polygon points="88.00,66.00 110.00,66.00 110.00,88.00 88.00,88.00" fill="#94a3b8" stroke="#15191f" stroke-width="1.7" stroke-linejoin="round"/>
  <polygon points="110.00,22.00 122.67,30.00 122.67,52.00 110.00,44.00" fill="#3f73d8" stroke="#15191f" stroke-width="1.7" stroke-linejoin="round"/><polygon points="122.67,30.00 135.33,38.00 135.33,60.00 122.67,52.00" fill="#cbd5e1" stroke="#15191f" stroke-width="1.7" stroke-linejoin="round"/><polygon points="135.33,38.00 148.00,46.00 148.00,68.00 135.33,60.00" fill="#cbd5e1" stroke="#15191f" stroke-width="1.7" stroke-linejoin="round"/><polygon points="110.00,44.00 122.67,52.00 122.67,74.00 110.00,66.00" fill="#cbd5e1" stroke="#15191f" stroke-width="1.7" stroke-linejoin="round"/><polygon points="122.67,52.00 135.33,60.00 135.33,82.00 122.67,74.00" fill="#df5a4f" stroke="#15191f" stroke-width="1.7" stroke-linejoin="round"/><polygon points="135.33,60.00 148.00,68.00 148.00,90.00 135.33,82.00" fill="#cbd5e1" stroke="#15191f" stroke-width="1.7" stroke-linejoin="round"/><polygon points="110.00,66.00 122.67,74.00 122.67,96.00 110.00,88.00" fill="#94a3b8" stroke="#15191f" stroke-width="1.7" stroke-linejoin="round"/><polygon points="122.67,74.00 135.33,82.00 135.33,104.00 122.67,96.00" fill="#df5a4f" stroke="#15191f" stroke-width="1.7" stroke-linejoin="round"/><polygon points="135.33,82.00 148.00,90.00 148.00,112.00 135.33,104.00" fill="#cbd5e1" stroke="#15191f" stroke-width="1.7" stroke-linejoin="round"/>
  <polygon points="44.00,88.00 66.00,88.00 78.67,96.00 56.67,96.00" fill="#cbd5e1" stroke="#15191f" stroke-width="1.7" stroke-linejoin="round"/><polygon points="66.00,88.00 88.00,88.00 100.67,96.00 78.67,96.00" fill="#ffffff" stroke="#15191f" stroke-width="1.7" stroke-linejoin="round"/><polygon points="88.00,88.00 110.00,88.00 122.67,96.00 100.67,96.00" fill="#94a3b8" stroke="#15191f" stroke-width="1.7" stroke-linejoin="round"/><polygon points="56.67,96.00 78.67,96.00 91.33,104.00 69.33,104.00" fill="#ffffff" stroke="#15191f" stroke-width="1.7" stroke-linejoin="round"/><polygon points="78.67,96.00 100.67,96.00 113.33,104.00 91.33,104.00" fill="#ffffff" stroke="#15191f" stroke-width="1.7" stroke-linejoin="round"/><polygon points="100.67,96.00 122.67,96.00 135.33,104.00 113.33,104.00" fill="#ffffff" stroke="#15191f" stroke-width="1.7" stroke-linejoin="round"/><polygon points="69.33,104.00 91.33,104.00 104.00,112.00 82.00,112.00" fill="#cbd5e1" stroke="#15191f" stroke-width="1.7" stroke-linejoin="round"/><polygon points="91.33,104.00 113.33,104.00 126.00,112.00 104.00,112.00" fill="#ffffff" stroke="#15191f" stroke-width="1.7" stroke-linejoin="round"/><polygon points="113.33,104.00 135.33,104.00 148.00,112.00 126.00,112.00" fill="#cbd5e1" stroke="#15191f" stroke-width="1.7" stroke-linejoin="round"/>
  
    <path d="M 116.5 36 L 116.50 79.00" fill="none" stroke="#3151ad" stroke-width="4" stroke-linecap="round"/>
    <polygon points="116.50,90.00 112.00,79.00 121.00,79.00" fill="#3151ad" stroke="#3151ad" stroke-linejoin="round"/>
  
</svg>
