<?xml version="1.0" encoding="UTF-8"?>
<svg xmlns="http://www.w3.org/2000/svg" viewBox="0 0 188 150" role="img" aria-labelledby="title">
  <title id="title">White daisy around the yellow center</title>
  <rect width="188" height="150" fill="white"/>
  <path d="M55 123h66l36-24V33H91L55 57z" fill="#000" opacity="0.04"/>
  <polygon points="55.00,57.00 67.00,49.00 89.00,49.00 77.00,57.00" fill="#cbd5e1" stroke="#15191f" stroke-width="1.7" stroke-linejoin="round"/><polygon points="67.00,49.00 79.00,41.00 101.00,41.00 89.00,49.00" fill="#ffffff" stroke="#15191f" stroke-width="1.7" stroke-linejoin="round"/><polygon points="79.00,41.00 91.00,33.00 113.00,33.00 101.00,41.00" fill="#cbd5e1" stroke="#15191f" stroke-width="1.7" stroke-linejoin="round"/><polygon points="77.00,57.00 89.00,49.00 111.00,49.00 99.00,57.00" fill="#ffffff" stroke="#15191f" stroke-width="1.7" stroke-linejoin="round"/><polygon points="89.00,49.00 101.00,41.00 123.00,41.00 111.00,49.00" fill="#ffd33d" stroke="#15191f" stroke-width="1.7" stroke-linejoin="round"/><polygon points="101.00,41.00 113.00,33.00 135.00,33.00 123.00,41.00" fill="#ffffff" stroke="#15191f" stroke-width="1.7" stroke-linejoin="round"/><polygon points="99.00,57.00 111.00,49.00 133.00,49.00 121.00,57.00" fill="#cbd5e1" stroke="#15191f" stroke-width="1.7" stroke-linejoin="round"/><polygon points="111.00,49.00 123.00,41.00 145.00,41.00 133.00,49.00" fill="#ffffff" stroke="#15191f" stroke-width="1.7" stroke-linejoin="round"/><polygon points="123.00,41.00 135.00,33.00 157.00,33.00 145.00,41.00" fill="#cbd5e1" stroke="#15191f" stroke-width="1.7" stroke-linejoin="round"/>
  <polygon points="121.00,57.00 133.00,49.00 133.00,71.00 121.00,79.00" fill="#cbd5e1" stroke="#15191f" stroke-width="1.7" stroke-linejoin="round"/><polygon points="133.00,49.00 145.00,41.00 145.00,63.00 133.00,71.00" fill="#cbd5e1" stroke="#15191f" stroke-width="1.7" stroke-linejoin="round"/><polygon points="145.00,41.00 157.00,33.00 157.00,55.00 145.00,63.00" fill="#cbd5e1" stroke="#15191f" stroke-width="1.7" stroke-linejoin="round"/><polygon points="121.00,79.00 133.00,71.00 133.00,93.00 121.00,101.00" fill="#cbd5e1" stroke="#15191f" stroke-width="1.7" stroke-linejoin="round"/><polygon points="133.00,71.00 145.00,63.00 145.00,85.00 133.00,93.00" fill="#df5a4f" stroke="#15191f" stroke-width="1.7" stroke-linejoin="round"/><polygon points="145.00,63.00 157.00,55.00 157.00,77.00 145.00,85.00" fill="#cbd5e1" stroke="#15191f" stroke-width="1.7" stroke-linejoin="round"/><polygon points="121.00,101.00 133.00,93.00 133.00,115.00 121.00,123.00" fill="#cbd5e1" stroke="#15191f" stroke-width="1.7" stroke-linejoin="round"/><polygon points="133.00,93.00 145.00,85.00 145.00,107.00 133.00,115.00" fill="#cbd5e1" stroke="#15191f" stroke-width="1.7" stroke-linejoin="round"/><polygon points="145.00,85.00 157.00,77.00 157.00,99.00 145.00,107.00" fill="#cbd5e1" stroke="#15191f" stroke-width="1.7" stroke-linejoin="round"/>
  <polygon points="55.00,57.00 77.00,57.00 77.00,79.00 55.00,79.00" fill="#cbd5e1" stroke="#15191f" stroke-width="1.7" stroke-linejoin="round"/><polygon points="77.00,57.00 99.00,57.00 99.00,79.00 77.00,79.00" fill="#cbd5e1" stroke="#15191f" stroke-width="1.7" stroke-linejoin="round"/><polygon points="99.00,57.00 121.00,57.00 121.00,79.00 99.00,79.00" fill="#cbd5e1" stroke="#15191f" stroke-width="1.7" stroke-linejoin="round"/><polygon points="55.00,79.00 77.00,79.00 77.00,101.00 55.00,101.00" fill="#cbd5e1" stroke="#15191f" stroke-width="1.7" stroke-linejoin="round"/><polygon points="77.00,79.00 99.00,79.00 99.00,101.00 77.00,101.00" fill="#3f73d8" stroke="#15191f" stroke-width="1.7" stroke-linejoin="round"/><polygon points="99.00,79.00 121.00,79.00 121.00,101.00 99.00,101.00" fill="#cbd5e1" stroke="#15191f" stroke-width="1.7" stroke-linejoin="round"/><polygon points="55.00,101.00 77.00,101.00 77.00,123.00 55.00,123.00" fill="#cbd5e1" stroke="#15191f" stroke-width="1.7" stroke-linejoin="round"/><polygon points="77.00,101.00 99.00,101.00 99.00,123.00 77.00,123.00" fill="#cbd5e1" stroke="#15191f" stroke-width="1.7" stroke-linejoin="round"/><polygon points="99.00,101.00 121.00,101.00 121.00,123.00 99.00,123.00" fill="#cbd5e1" stroke="#15191f" stroke-width="1.7" stroke-linejoin="round"/>
  
</svg>
