<?xml version="1.0" encoding="UTF-8"?>
<svg xmlns="http://www.w3.org/2000/svg" viewBox="0 0 144 144" role="img" aria-labelledby="title">
  <title id="title">Position last layer edges</title>
  <rect width="144" height="144" fill="white"/>
  <rect x="21" y="21" width="34" height="34" fill="#ffd33d" stroke="#15191f" stroke-width="2"/><rect x="55" y="21" width="34" height="34" fill="#ffd33d" stroke="#15191f" stroke-width="2"/><rect x="89" y="21" width="34" height="34" fill="#ffd33d" stroke="#15191f" stroke-width="2"/><rect x="21" y="55" width="34" height="34" fill="#ffd33d" stroke="#15191f" stroke-width="2"/><rect x="55" y="55" width="34" height="34" fill="#ffd33d" stroke="#15191f" stroke-width="2"/><rect x="89" y="55" width="34" height="34" fill="#ffd33d" stroke="#15191f" stroke-width="2"/><rect x="21" y="89" width="34" height="34" fill="#ffd33d" stroke="#15191f" stroke-width="2"/><rect x="55" y="89" width="34" height="34" fill="#ffd33d" stroke="#15191f" stroke-width="2"/><rect x="89" y="89" width="34" height="34" fill="#ffd33d" stroke="#15191f" stroke-width="2"/>
  
  
      
    <path d="M 37 72 L 64.22 44.78" fill="none" stroke="#3151ad" stroke-width="4" stroke-linecap="round"/>
    <polygon points="72.00,37.00 67.40,47.96 61.04,41.60" fill="#3151ad" stroke="#3151ad" stroke-linejoin="round"/>
  
      
    <path d="M 72 37 L 99.22 64.22" fill="none" stroke="#3151ad" stroke-width="4" stroke-linecap="round"/>
    <polygon points="107.00,72.00 96.04,67.40 102.40,61.04" fill="#3151ad" stroke="#3151ad" stroke-linejoin="round"/>
  
      
    <path d="M 107 72 L 48.00 72.00" fill="none" stroke="#3151ad" stroke-width="4" stroke-linecap="round"/>
    <polygon points="37.00,72.00 48.00,67.50 48.00,76.50" fill="#3151ad" stroke="#3151ad" stroke-linejoin="round"/>
  
    
</svg>
