<?xml version="1.0" encoding="UTF-8"?>
<svg xmlns="http://www.w3.org/2000/svg" viewBox="0 0 144 144" role="img" aria-labelledby="title">
  <title id="title">Position last layer edges</title>
  <rect width="144" height="144" fill="white"/>
  <rect x="21" y="21" width="34" height="34" fill="#ffd33d" stroke="#15191f" stroke-width="2"/><rect x="55" y="21" width="34" height="34" fill="#ffd33d" stroke="#15191f" stroke-width="2"/><rect x="89" y="21" width="34" height="34" fill="#ffd33d" stroke="#15191f" stroke-width="2"/><rect x="21" y="55" width="34" height="34" fill="#ffd33d" stroke="#15191f" stroke-width="2"/><rect x="55" y="55" width="34" height="34" fill="#ffd33d" stroke="#15191f" stroke-width="2"/><rect x="89" y="55" width="34" height="34" fill="#ffd33d" stroke="#15191f" stroke-width="2"/><rect x="21" y="89" width="34" height="34" fill="#ffd33d" stroke="#15191f" stroke-width="2"/><rect x="55" y="89" width="34" height="34" fill="#ffd33d" stroke="#15191f" stroke-width="2"/><rect x="89" y="89" width="34" height="34" fill="#ffd33d" stroke="#15191f" stroke-width="2"/>
  
  
      
    <path d="M 42.00 72.00 L 91.00 72.00" fill="none" stroke="#3151ad" stroke-width="4" stroke-linecap="round"/>
    
    <polygon points="102.00,72.00 91.00,76.50 91.00,67.50" fill="#3151ad" stroke="#3151ad" stroke-linejoin="round"/>
  
      
    <path d="M 103.00 76.00 L 83.78 95.22" fill="none" stroke="#3151ad" stroke-width="4" stroke-linecap="round"/>
    
    <polygon points="76.00,103.00 80.60,92.04 86.96,98.40" fill="#3151ad" stroke="#3151ad" stroke-linejoin="round"/>
  
      
    <path d="M 68.00 103.00 L 48.78 83.78" fill="none" stroke="#3151ad" stroke-width="4" stroke-linecap="round"/>
    
    <polygon points="41.00,76.00 51.96,80.60 45.60,86.96" fill="#3151ad" stroke="#3151ad" stroke-linejoin="round"/>
  
    
</svg>
