<?xml version="1.0" encoding="UTF-8"?>
<svg xmlns="http://www.w3.org/2000/svg" viewBox="10 6 144 144" role="img" aria-labelledby="title">
  <title id="title">Move an edge into the left side of the second layer</title>
  <path d="M67 123h66V57L97 33H31v66z" fill="#000" opacity="0.04"/>
  <polygon points="31.00,33.00 53.00,33.00 65.00,41.00 43.00,41.00" fill="#cbd5e1" stroke="#15191f" stroke-width="1.7" stroke-linejoin="round"/><polygon points="53.00,33.00 75.00,33.00 87.00,41.00 65.00,41.00" fill="#cbd5e1" stroke="#15191f" stroke-width="1.7" stroke-linejoin="round"/><polygon points="75.00,33.00 97.00,33.00 109.00,41.00 87.00,41.00" fill="#cbd5e1" stroke="#15191f" stroke-width="1.7" stroke-linejoin="round"/><polygon points="43.00,41.00 65.00,41.00 77.00,49.00 55.00,49.00" fill="#cbd5e1" stroke="#15191f" stroke-width="1.7" stroke-linejoin="round"/><polygon points="65.00,41.00 87.00,41.00 99.00,49.00 77.00,49.00" fill="#ffd33d" stroke="#15191f" stroke-width="1.7" stroke-linejoin="round"/><polygon points="87.00,41.00 109.00,41.00 121.00,49.00 99.00,49.00" fill="#cbd5e1" stroke="#15191f" stroke-width="1.7" stroke-linejoin="round"/><polygon points="55.00,49.00 77.00,49.00 89.00,57.00 67.00,57.00" fill="#cbd5e1" stroke="#15191f" stroke-width="1.7" stroke-linejoin="round"/><polygon points="77.00,49.00 99.00,49.00 111.00,57.00 89.00,57.00" fill="#f19a3e" stroke="#15191f" stroke-width="1.7" stroke-linejoin="round"/><polygon points="99.00,49.00 121.00,49.00 133.00,57.00 111.00,57.00" fill="#cbd5e1" stroke="#15191f" stroke-width="1.7" stroke-linejoin="round"/>
  <polygon points="31.00,33.00 43.00,41.00 43.00,63.00 31.00,55.00" fill="#cbd5e1" stroke="#15191f" stroke-width="1.7" stroke-linejoin="round"/><polygon points="43.00,41.00 55.00,49.00 55.00,71.00 43.00,63.00" fill="#cbd5e1" stroke="#15191f" stroke-width="1.7" stroke-linejoin="round"/><polygon points="55.00,49.00 67.00,57.00 67.00,79.00 55.00,71.00" fill="#cbd5e1" stroke="#15191f" stroke-width="1.7" stroke-linejoin="round"/><polygon points="31.00,55.00 43.00,63.00 43.00,85.00 31.00,77.00" fill="#cbd5e1" stroke="#15191f" stroke-width="1.7" stroke-linejoin="round"/><polygon points="43.00,63.00 55.00,71.00 55.00,93.00 43.00,85.00" fill="#f19a3e" stroke="#15191f" stroke-width="1.7" stroke-linejoin="round"/><polygon points="55.00,71.00 67.00,79.00 67.00,101.00 55.00,93.00" fill="#94a3b8" stroke="#15191f" stroke-width="1.7" stroke-linejoin="round"/><polygon points="31.00,77.00 43.00,85.00 43.00,107.00 31.00,99.00" fill="#f19a3e" stroke="#15191f" stroke-width="1.7" stroke-linejoin="round"/><polygon points="43.00,85.00 55.00,93.00 55.00,115.00 43.00,107.00" fill="#f19a3e" stroke="#15191f" stroke-width="1.7" stroke-linejoin="round"/><polygon points="55.00,93.00 67.00,101.00 67.00,123.00 55.00,115.00" fill="#f19a3e" stroke="#15191f" stroke-width="1.7" stroke-linejoin="round"/>
  <polygon points="67.00,57.00 89.00,57.00 89.00,79.00 67.00,79.00" fill="#cbd5e1" stroke="#15191f" stroke-width="1.7" stroke-linejoin="round"/><polygon points="89.00,57.00 111.00,57.00 111.00,79.00 89.00,79.00" fill="#3f73d8" stroke="#15191f" stroke-width="1.7" stroke-linejoin="round"/><polygon points="111.00,57.00 133.00,57.00 133.00,79.00 111.00,79.00" fill="#cbd5e1" stroke="#15191f" stroke-width="1.7" stroke-linejoin="round"/><polygon points="67.00,79.00 89.00,79.00 89.00,101.00 67.00,101.00" fill="#94a3b8" stroke="#15191f" stroke-width="1.7" stroke-linejoin="round"/><polygon points="89.00,79.00 111.00,79.00 111.00,101.00 89.00,101.00" fill="#3f73d8" stroke="#15191f" stroke-width="1.7" stroke-linejoin="round"/><polygon points="111.00,79.00 133.00,79.00 133.00,101.00 111.00,101.00" fill="#3f73d8" stroke="#15191f" stroke-width="1.7" stroke-linejoin="round"/><polygon points="67.00,101.00 89.00,101.00 89.00,123.00 67.00,123.00" fill="#3f73d8" stroke="#15191f" stroke-width="1.7" stroke-linejoin="round"/><polygon points="89.00,101.00 111.00,101.00 111.00,123.00 89.00,123.00" fill="#3f73d8" stroke="#15191f" stroke-width="1.7" stroke-linejoin="round"/><polygon points="111.00,101.00 133.00,101.00 133.00,123.00 111.00,123.00" fill="#3f73d8" stroke="#15191f" stroke-width="1.7" stroke-linejoin="round"/>
  
    <path d="M 100.00 68.00 L 85.78 82.22" fill="none" stroke="#3151ad" stroke-width="4" stroke-linecap="round"/>
    
    <polygon points="78.00,90.00 82.60,79.04 88.96,85.40" fill="#3151ad" stroke="#3151ad" stroke-linejoin="round"/>
  
</svg>
